<svg width="7" height="8" viewBox="0 0 7 8" fill="none" xmlns="http://www.w3.org/2000/svg">
<path fill-rule="evenodd" clip-rule="evenodd" d="M3.83439 0.146111C4.11441 0.376116 4.15981 0.795642 3.93579 1.08315L1.66305 4L3.93579 6.91685C4.15981 7.20436 4.11441 7.62388 3.83439 7.85389C3.55437 8.08389 3.14576 8.03728 2.92174 7.74977L0 4L2.92174 0.250226C3.14576 -0.0372799 3.55437 -0.0838938 3.83439 0.146111ZM6.75629 0.146111C7.03631 0.376116 7.08171 0.795642 6.85769 1.08315L4.58495 4L6.85769 6.91685C7.08171 7.20436 7.03631 7.62388 6.75629 7.85389C6.47626 8.08389 6.06766 8.03728 5.84364 7.74977L2.9219 4L5.84364 0.250226C6.06766 -0.0372799 6.47626 -0.0838938 6.75629 0.146111Z" fill="#999999"/>
</svg>
